<mxfile host="65bd71144e">
    <diagram id="YtomSqiL-dNP8fv28u6-" name="PÃ¡gina-1">
        <mxGraphModel dx="1103" dy="779" grid="1" gridSize="10" guides="1" tooltips="1" connect="1" arrows="1" fold="1" page="1" pageScale="1" pageWidth="827" pageHeight="1169" math="0" shadow="0">
            <root>
                <mxCell id="0"/>
                <mxCell id="1" parent="0"/>
                <mxCell id="9" style="edgeStyle=none;html=1;exitX=1;exitY=0.5;exitDx=0;exitDy=0;entryX=0;entryY=0.5;entryDx=0;entryDy=0;startArrow=classic;startFill=1;" parent="1" source="2" target="3" edge="1">
                    <mxGeometry relative="1" as="geometry"/>
                </mxCell>
                <mxCell id="12" value="&lt;font style=&quot;font-size: 16px;&quot;&gt;Actualizar y&lt;br&gt;recibir inputs&lt;br&gt;&lt;/font&gt;" style="edgeLabel;html=1;align=center;verticalAlign=middle;resizable=0;points=[];" parent="9" vertex="1" connectable="0">
                    <mxGeometry x="-0.3667" y="2" relative="1" as="geometry">
                        <mxPoint x="22" y="2" as="offset"/>
                    </mxGeometry>
                </mxCell>
                <mxCell id="2" value="Vista" style="rounded=1;whiteSpace=wrap;html=1;" parent="1" vertex="1">
                    <mxGeometry x="60" y="100" width="100" height="60" as="geometry"/>
                </mxCell>
                <mxCell id="10" style="edgeStyle=none;html=1;exitX=1;exitY=0.5;exitDx=0;exitDy=0;entryX=0;entryY=0.5;entryDx=0;entryDy=0;startArrow=classic;startFill=1;" parent="1" source="3" target="4" edge="1">
                    <mxGeometry relative="1" as="geometry"/>
                </mxCell>
                <mxCell id="13" value="Captar cambios&lt;br&gt;y actualizar" style="edgeLabel;html=1;align=center;verticalAlign=middle;resizable=0;points=[];fontSize=16;" parent="10" vertex="1" connectable="0">
                    <mxGeometry x="0.2833" relative="1" as="geometry">
                        <mxPoint x="-23" as="offset"/>
                    </mxGeometry>
                </mxCell>
                <mxCell id="3" value="Presentador" style="rounded=1;whiteSpace=wrap;html=1;" parent="1" vertex="1">
                    <mxGeometry x="320" y="100" width="100" height="60" as="geometry"/>
                </mxCell>
                <mxCell id="4" value="Modelo" style="rounded=1;whiteSpace=wrap;html=1;" parent="1" vertex="1">
                    <mxGeometry x="580" y="100" width="100" height="60" as="geometry"/>
                </mxCell>
            </root>
        </mxGraphModel>
    </diagram>
</mxfile>